<mxfile host="app.diagrams.net" modified="2022-03-24T13:49:03.027Z" agent="5.0 (Windows NT 10.0; Win64; x64) AppleWebKit/537.36 (KHTML, like Gecko) Chrome/99.0.4844.74 Safari/537.36 Edg/99.0.1150.46" etag="WLOu0YJoeAUt5Dx6VFzy" version="17.2.1" type="github">
  <diagram id="gOMTUu9a3fQG_O2-foZ2" name="Page-1">
    <mxGraphModel dx="1737" dy="1012" grid="1" gridSize="10" guides="1" tooltips="1" connect="1" arrows="1" fold="1" page="1" pageScale="1" pageWidth="827" pageHeight="1169" math="0" shadow="0">
      <root>
        <mxCell id="0" />
        <mxCell id="1" parent="0" />
        <mxCell id="X4mrAmJHezILYjjDiZY6-1" value="" style="rounded=0;whiteSpace=wrap;html=1;" parent="1" vertex="1">
          <mxGeometry x="40" y="120" width="360" height="560" as="geometry" />
        </mxCell>
        <mxCell id="X4mrAmJHezILYjjDiZY6-2" value="Add New Milestone&amp;nbsp; &amp;nbsp; &amp;nbsp; &amp;nbsp; &amp;nbsp;&amp;nbsp;" style="rounded=0;whiteSpace=wrap;html=1;" parent="1" vertex="1">
          <mxGeometry x="40" y="600" width="180" height="80" as="geometry" />
        </mxCell>
        <mxCell id="X4mrAmJHezILYjjDiZY6-5" value="" style="endArrow=none;html=1;rounded=0;" parent="1" edge="1">
          <mxGeometry width="50" height="50" relative="1" as="geometry">
            <mxPoint x="410" y="600" as="sourcePoint" />
            <mxPoint x="20" y="600" as="targetPoint" />
          </mxGeometry>
        </mxCell>
        <mxCell id="X4mrAmJHezILYjjDiZY6-6" value="&lt;font size=&quot;1&quot;&gt;&lt;b style=&quot;font-size: 40px&quot;&gt;Sum&amp;nbsp;&lt;/b&gt;&lt;/font&gt;" style="rounded=0;whiteSpace=wrap;html=1;" parent="1" vertex="1">
          <mxGeometry x="40" y="120" width="360" height="120" as="geometry" />
        </mxCell>
        <mxCell id="X4mrAmJHezILYjjDiZY6-7" value="Next Milestone: Milestone id&amp;nbsp;&lt;br&gt;&amp;nbsp; &amp;nbsp; &amp;nbsp; &amp;nbsp; &amp;nbsp;€&lt;br&gt;&amp;nbsp; &amp;nbsp; &amp;nbsp; &amp;nbsp; &amp;nbsp; &amp;nbsp; &amp;nbsp; Date" style="rounded=1;whiteSpace=wrap;html=1;" parent="1" vertex="1">
          <mxGeometry x="40" y="270" width="360" height="60" as="geometry" />
        </mxCell>
        <mxCell id="X4mrAmJHezILYjjDiZY6-9" value="Milestone id Single complete" style="rounded=1;whiteSpace=wrap;html=1;" parent="1" vertex="1">
          <mxGeometry x="40" y="240" width="180" height="30" as="geometry" />
        </mxCell>
        <mxCell id="X4mrAmJHezILYjjDiZY6-10" value="Milestone id complete" style="rounded=1;whiteSpace=wrap;html=1;" parent="1" vertex="1">
          <mxGeometry x="220" y="240" width="180" height="30" as="geometry" />
        </mxCell>
        <mxCell id="X4mrAmJHezILYjjDiZY6-11" value="overview bookings" style="rounded=0;whiteSpace=wrap;html=1;" parent="1" vertex="1">
          <mxGeometry x="40" y="330" width="360" height="270" as="geometry" />
        </mxCell>
        <mxCell id="X4mrAmJHezILYjjDiZY6-8" value="Add New Booking" style="ellipse;whiteSpace=wrap;html=1;aspect=fixed;" parent="1" vertex="1">
          <mxGeometry x="175" y="590" width="90" height="90" as="geometry" />
        </mxCell>
        <mxCell id="X4mrAmJHezILYjjDiZY6-12" value="" style="rounded=0;whiteSpace=wrap;html=1;" parent="1" vertex="1">
          <mxGeometry x="920" y="920" width="360" height="560" as="geometry" />
        </mxCell>
        <mxCell id="X4mrAmJHezILYjjDiZY6-13" value="&lt;font style=&quot;font-size: 30px&quot;&gt;Add New Milestone&lt;/font&gt;" style="rounded=0;whiteSpace=wrap;html=1;fontSize=40;" parent="1" vertex="1">
          <mxGeometry x="920" y="920" width="360" height="80" as="geometry" />
        </mxCell>
        <mxCell id="X4mrAmJHezILYjjDiZY6-17" value="" style="rounded=0;whiteSpace=wrap;html=1;fontSize=30;" parent="1" vertex="1">
          <mxGeometry x="920" y="1120" width="360" height="280" as="geometry" />
        </mxCell>
        <mxCell id="X4mrAmJHezILYjjDiZY6-18" value="Save and back &lt;br&gt;to overview" style="rounded=0;whiteSpace=wrap;html=1;" parent="1" vertex="1">
          <mxGeometry x="920" y="1400" width="180" height="80" as="geometry" />
        </mxCell>
        <mxCell id="X4mrAmJHezILYjjDiZY6-21" value="&amp;nbsp; &amp;nbsp; &amp;nbsp; &amp;nbsp; Cancel and back &lt;br&gt;&amp;nbsp; &amp;nbsp; &amp;nbsp; &amp;nbsp;to overview" style="rounded=0;whiteSpace=wrap;html=1;" parent="1" vertex="1">
          <mxGeometry x="1100" y="1400" width="180" height="80" as="geometry" />
        </mxCell>
        <mxCell id="X4mrAmJHezILYjjDiZY6-19" value="Save and Add new milestone" style="ellipse;whiteSpace=wrap;html=1;aspect=fixed;" parent="1" vertex="1">
          <mxGeometry x="1055" y="1390" width="90" height="90" as="geometry" />
        </mxCell>
        <mxCell id="X4mrAmJHezILYjjDiZY6-23" value="id" style="rounded=0;whiteSpace=wrap;html=1;fontSize=12;" parent="1" vertex="1">
          <mxGeometry x="920" y="1000" width="360" height="60" as="geometry" />
        </mxCell>
        <mxCell id="X4mrAmJHezILYjjDiZY6-24" value="€" style="rounded=0;whiteSpace=wrap;html=1;fontSize=12;" parent="1" vertex="1">
          <mxGeometry x="920" y="1060" width="360" height="60" as="geometry" />
        </mxCell>
        <mxCell id="X4mrAmJHezILYjjDiZY6-25" value="&lt;span&gt;Single Complete = Alle Buchungen in dem Jahr werden zusammengerechnet&lt;br&gt;&lt;/span&gt;&lt;br&gt;&lt;span&gt;Complete = nur die wiederkehrenden Buchungen werden dazu verwendet.&amp;nbsp;&lt;/span&gt;" style="rounded=0;whiteSpace=wrap;html=1;fontSize=12;align=left;" parent="1" vertex="1">
          <mxGeometry x="40" y="720" width="360" height="80" as="geometry" />
        </mxCell>
        <mxCell id="X4mrAmJHezILYjjDiZY6-26" value="" style="rounded=0;whiteSpace=wrap;html=1;" parent="1" vertex="1">
          <mxGeometry x="920" y="1720" width="360" height="560" as="geometry" />
        </mxCell>
        <mxCell id="X4mrAmJHezILYjjDiZY6-27" value="&lt;font style=&quot;font-size: 30px&quot;&gt;Add New Booking&lt;/font&gt;" style="rounded=0;whiteSpace=wrap;html=1;fontSize=40;" parent="1" vertex="1">
          <mxGeometry x="920" y="1720" width="360" height="80" as="geometry" />
        </mxCell>
        <mxCell id="X4mrAmJHezILYjjDiZY6-28" value="€" style="rounded=1;whiteSpace=wrap;html=1;fontSize=12;" parent="1" vertex="1">
          <mxGeometry x="920" y="1860" width="360" height="60" as="geometry" />
        </mxCell>
        <mxCell id="X4mrAmJHezILYjjDiZY6-29" value="Date" style="rounded=1;whiteSpace=wrap;html=1;fontSize=12;" parent="1" vertex="1">
          <mxGeometry x="920" y="1920" width="360" height="60" as="geometry" />
        </mxCell>
        <mxCell id="X4mrAmJHezILYjjDiZY6-30" value="Checkbox Single Bill" style="rounded=1;whiteSpace=wrap;html=1;fontSize=12;" parent="1" vertex="1">
          <mxGeometry x="920" y="1980" width="360" height="60" as="geometry" />
        </mxCell>
        <mxCell id="X4mrAmJHezILYjjDiZY6-31" value="Checkbox repeditive Bill&lt;br&gt;Checkboxes: yearly - halfyearly - quartal - monthly" style="rounded=0;whiteSpace=wrap;html=1;fontSize=12;" parent="1" vertex="1">
          <mxGeometry x="920" y="2040" width="360" height="60" as="geometry" />
        </mxCell>
        <mxCell id="X4mrAmJHezILYjjDiZY6-33" value="Save and back &lt;br&gt;to overview" style="rounded=0;whiteSpace=wrap;html=1;" parent="1" vertex="1">
          <mxGeometry x="920" y="2200" width="180" height="80" as="geometry" />
        </mxCell>
        <mxCell id="X4mrAmJHezILYjjDiZY6-34" value="&amp;nbsp; &amp;nbsp; &amp;nbsp; &amp;nbsp; Cancel and back &lt;br&gt;&amp;nbsp; &amp;nbsp; &amp;nbsp; &amp;nbsp;to overview" style="rounded=0;whiteSpace=wrap;html=1;" parent="1" vertex="1">
          <mxGeometry x="1100" y="2200" width="180" height="80" as="geometry" />
        </mxCell>
        <mxCell id="X4mrAmJHezILYjjDiZY6-35" value="Save and Add new booking" style="ellipse;whiteSpace=wrap;html=1;aspect=fixed;" parent="1" vertex="1">
          <mxGeometry x="1055" y="2190" width="90" height="90" as="geometry" />
        </mxCell>
        <mxCell id="X4mrAmJHezILYjjDiZY6-36" value="" style="rounded=0;whiteSpace=wrap;html=1;" parent="1" vertex="1">
          <mxGeometry x="40" y="920" width="360" height="560" as="geometry" />
        </mxCell>
        <mxCell id="X4mrAmJHezILYjjDiZY6-37" value="&lt;font style=&quot;font-size: 30px&quot;&gt;Milestones&lt;/font&gt;" style="rounded=0;whiteSpace=wrap;html=1;fontSize=40;" parent="1" vertex="1">
          <mxGeometry x="40" y="920" width="360" height="80" as="geometry" />
        </mxCell>
        <mxCell id="X4mrAmJHezILYjjDiZY6-40" value="" style="rounded=0;whiteSpace=wrap;html=1;" parent="1" vertex="1">
          <mxGeometry x="40" y="1400" width="180" height="80" as="geometry" />
        </mxCell>
        <mxCell id="X4mrAmJHezILYjjDiZY6-41" value="&amp;nbsp; &amp;nbsp; &amp;nbsp; &amp;nbsp; &amp;nbsp; back to overview" style="rounded=0;whiteSpace=wrap;html=1;" parent="1" vertex="1">
          <mxGeometry x="220" y="1400" width="180" height="80" as="geometry" />
        </mxCell>
        <mxCell id="X4mrAmJHezILYjjDiZY6-43" value="overview Milestones" style="rounded=0;whiteSpace=wrap;html=1;fontSize=12;" parent="1" vertex="1">
          <mxGeometry x="40" y="1000" width="360" height="400" as="geometry" />
        </mxCell>
        <mxCell id="X4mrAmJHezILYjjDiZY6-42" value="Add new Milestone" style="ellipse;whiteSpace=wrap;html=1;aspect=fixed;" parent="1" vertex="1">
          <mxGeometry x="175" y="1390" width="90" height="90" as="geometry" />
        </mxCell>
        <mxCell id="X4mrAmJHezILYjjDiZY6-44" value="&lt;span&gt;Die Milestone nummern sollten sich selbst anhand ihrer Größe&amp;nbsp;oder ihres Datums Ordnen&amp;nbsp;&amp;nbsp;&lt;br&gt;&lt;/span&gt;" style="rounded=0;whiteSpace=wrap;html=1;fontSize=12;align=left;" parent="1" vertex="1">
          <mxGeometry x="40" y="1520" width="360" height="80" as="geometry" />
        </mxCell>
        <mxCell id="X4mrAmJHezILYjjDiZY6-45" value="Milestone #" style="rounded=1;whiteSpace=wrap;html=1;fontSize=12;" parent="1" vertex="1">
          <mxGeometry x="40" y="1000" width="360" height="60" as="geometry" />
        </mxCell>
        <mxCell id="X4mrAmJHezILYjjDiZY6-49" value="Milestone #" style="rounded=1;whiteSpace=wrap;html=1;fontSize=12;" parent="1" vertex="1">
          <mxGeometry x="40" y="1060" width="360" height="60" as="geometry" />
        </mxCell>
        <mxCell id="X4mrAmJHezILYjjDiZY6-50" value="" style="rounded=0;whiteSpace=wrap;html=1;" parent="1" vertex="1">
          <mxGeometry x="480" y="120" width="360" height="560" as="geometry" />
        </mxCell>
        <mxCell id="X4mrAmJHezILYjjDiZY6-51" value="" style="rounded=0;whiteSpace=wrap;html=1;" parent="1" vertex="1">
          <mxGeometry x="480" y="920" width="360" height="560" as="geometry" />
        </mxCell>
        <mxCell id="X4mrAmJHezILYjjDiZY6-52" value="&lt;font style=&quot;font-size: 30px&quot;&gt;Milestone id&lt;/font&gt;" style="rounded=0;whiteSpace=wrap;html=1;fontSize=40;" parent="1" vertex="1">
          <mxGeometry x="480" y="920" width="360" height="80" as="geometry" />
        </mxCell>
        <mxCell id="X4mrAmJHezILYjjDiZY6-53" value="€" style="rounded=0;whiteSpace=wrap;html=1;fontSize=12;" parent="1" vertex="1">
          <mxGeometry x="480" y="1000" width="360" height="60" as="geometry" />
        </mxCell>
        <mxCell id="X4mrAmJHezILYjjDiZY6-54" value="Date" style="rounded=0;whiteSpace=wrap;html=1;fontSize=12;" parent="1" vertex="1">
          <mxGeometry x="480" y="1060" width="360" height="60" as="geometry" />
        </mxCell>
        <mxCell id="X4mrAmJHezILYjjDiZY6-55" value="Single Complete: Yes/No&lt;br&gt;Complete: Yes/no" style="rounded=0;whiteSpace=wrap;html=1;fontSize=12;" parent="1" vertex="1">
          <mxGeometry x="480" y="1120" width="360" height="60" as="geometry" />
        </mxCell>
        <mxCell id="X4mrAmJHezILYjjDiZY6-56" value="Delete" style="rounded=0;whiteSpace=wrap;html=1;" parent="1" vertex="1">
          <mxGeometry x="480" y="1400" width="180" height="80" as="geometry" />
        </mxCell>
        <mxCell id="X4mrAmJHezILYjjDiZY6-57" value="&amp;nbsp; &amp;nbsp; &amp;nbsp; &amp;nbsp; &amp;nbsp; back to milestones" style="rounded=0;whiteSpace=wrap;html=1;" parent="1" vertex="1">
          <mxGeometry x="660" y="1400" width="180" height="80" as="geometry" />
        </mxCell>
        <mxCell id="X4mrAmJHezILYjjDiZY6-58" value="edit" style="ellipse;whiteSpace=wrap;html=1;aspect=fixed;" parent="1" vertex="1">
          <mxGeometry x="615" y="1390" width="90" height="90" as="geometry" />
        </mxCell>
        <mxCell id="X4mrAmJHezILYjjDiZY6-59" value="Single Complete: %&lt;br&gt;Complete: %" style="rounded=0;whiteSpace=wrap;html=1;fontSize=12;" parent="1" vertex="1">
          <mxGeometry x="480" y="1180" width="360" height="60" as="geometry" />
        </mxCell>
        <mxCell id="X4mrAmJHezILYjjDiZY6-60" value="&lt;span&gt;overview bookings&lt;/span&gt;" style="rounded=0;whiteSpace=wrap;html=1;" parent="1" vertex="1">
          <mxGeometry x="40" y="1720" width="360" height="560" as="geometry" />
        </mxCell>
        <mxCell id="X4mrAmJHezILYjjDiZY6-61" value="&lt;font style=&quot;font-size: 30px&quot;&gt;Bookings&lt;/font&gt;" style="rounded=0;whiteSpace=wrap;html=1;fontSize=40;" parent="1" vertex="1">
          <mxGeometry x="40" y="1720" width="360" height="80" as="geometry" />
        </mxCell>
        <mxCell id="X4mrAmJHezILYjjDiZY6-62" value="booking id&lt;br&gt;&lt;br&gt;&amp;nbsp;&lt;br&gt;&amp;nbsp;" style="rounded=1;whiteSpace=wrap;html=1;fontSize=12;" parent="1" vertex="1">
          <mxGeometry x="40" y="1800" width="360" height="60" as="geometry" />
        </mxCell>
        <mxCell id="X4mrAmJHezILYjjDiZY6-64" value="" style="rounded=0;whiteSpace=wrap;html=1;" parent="1" vertex="1">
          <mxGeometry x="40" y="2200" width="180" height="80" as="geometry" />
        </mxCell>
        <mxCell id="X4mrAmJHezILYjjDiZY6-65" value="&amp;nbsp; &amp;nbsp; &amp;nbsp; &amp;nbsp; &amp;nbsp; back to overview" style="rounded=0;whiteSpace=wrap;html=1;" parent="1" vertex="1">
          <mxGeometry x="220" y="2200" width="180" height="80" as="geometry" />
        </mxCell>
        <mxCell id="X4mrAmJHezILYjjDiZY6-66" value="Add new booking" style="ellipse;whiteSpace=wrap;html=1;aspect=fixed;" parent="1" vertex="1">
          <mxGeometry x="175" y="2190" width="90" height="90" as="geometry" />
        </mxCell>
        <mxCell id="X4mrAmJHezILYjjDiZY6-67" value="&lt;span&gt;Die booking Einträge&amp;nbsp;sollten sich anhand ihrer nummern oder ihres Datums&amp;nbsp;ordnen.&amp;nbsp;&lt;br&gt;&lt;/span&gt;" style="rounded=0;whiteSpace=wrap;html=1;fontSize=12;align=left;" parent="1" vertex="1">
          <mxGeometry x="40" y="2320" width="360" height="80" as="geometry" />
        </mxCell>
        <mxCell id="X4mrAmJHezILYjjDiZY6-68" value="&lt;span&gt;Die booking nummern sollten sich selbst anhand ihrer größten Nummer&amp;nbsp;selbst vergeben&amp;nbsp;&lt;br&gt;&lt;/span&gt;" style="rounded=0;whiteSpace=wrap;html=1;fontSize=12;align=left;" parent="1" vertex="1">
          <mxGeometry x="920" y="2320" width="360" height="80" as="geometry" />
        </mxCell>
        <mxCell id="X4mrAmJHezILYjjDiZY6-69" value="id" style="rounded=1;whiteSpace=wrap;html=1;fontSize=12;" parent="1" vertex="1">
          <mxGeometry x="920" y="1800" width="360" height="60" as="geometry" />
        </mxCell>
        <mxCell id="X4mrAmJHezILYjjDiZY6-70" value="Date" style="rounded=0;whiteSpace=wrap;html=1;fontSize=12;" parent="1" vertex="1">
          <mxGeometry x="920" y="1120" width="360" height="60" as="geometry" />
        </mxCell>
        <mxCell id="X4mrAmJHezILYjjDiZY6-71" value="&lt;span&gt;Die Milestone Nummer&amp;nbsp;wird automatisch erstellt je nach Größe&amp;nbsp;des wertes.&lt;br&gt;&lt;/span&gt;" style="rounded=0;whiteSpace=wrap;html=1;fontSize=12;align=left;" parent="1" vertex="1">
          <mxGeometry x="920" y="1520" width="360" height="80" as="geometry" />
        </mxCell>
        <mxCell id="X4mrAmJHezILYjjDiZY6-72" value="" style="rounded=0;whiteSpace=wrap;html=1;" parent="1" vertex="1">
          <mxGeometry x="480" y="1720" width="360" height="560" as="geometry" />
        </mxCell>
        <mxCell id="X4mrAmJHezILYjjDiZY6-73" value="&lt;font style=&quot;font-size: 30px&quot;&gt;Booking id&lt;/font&gt;" style="rounded=0;whiteSpace=wrap;html=1;fontSize=40;" parent="1" vertex="1">
          <mxGeometry x="480" y="1720" width="360" height="80" as="geometry" />
        </mxCell>
        <mxCell id="X4mrAmJHezILYjjDiZY6-74" value="€" style="rounded=0;whiteSpace=wrap;html=1;fontSize=12;" parent="1" vertex="1">
          <mxGeometry x="480" y="1800" width="360" height="60" as="geometry" />
        </mxCell>
        <mxCell id="X4mrAmJHezILYjjDiZY6-75" value="Date" style="rounded=0;whiteSpace=wrap;html=1;fontSize=12;" parent="1" vertex="1">
          <mxGeometry x="480" y="1860" width="360" height="60" as="geometry" />
        </mxCell>
        <mxCell id="X4mrAmJHezILYjjDiZY6-76" value="Single bill or repeditive bill" style="rounded=0;whiteSpace=wrap;html=1;fontSize=12;" parent="1" vertex="1">
          <mxGeometry x="480" y="1920" width="360" height="60" as="geometry" />
        </mxCell>
        <mxCell id="X4mrAmJHezILYjjDiZY6-77" value="Delete" style="rounded=0;whiteSpace=wrap;html=1;" parent="1" vertex="1">
          <mxGeometry x="480" y="2200" width="180" height="80" as="geometry" />
        </mxCell>
        <mxCell id="X4mrAmJHezILYjjDiZY6-78" value="&amp;nbsp; &amp;nbsp; &amp;nbsp; &amp;nbsp; &amp;nbsp; back to bookings" style="rounded=0;whiteSpace=wrap;html=1;" parent="1" vertex="1">
          <mxGeometry x="660" y="2200" width="180" height="80" as="geometry" />
        </mxCell>
        <mxCell id="X4mrAmJHezILYjjDiZY6-79" value="edit" style="ellipse;whiteSpace=wrap;html=1;aspect=fixed;" parent="1" vertex="1">
          <mxGeometry x="615" y="2190" width="90" height="90" as="geometry" />
        </mxCell>
        <mxCell id="q0-gRQDSt2aBvQ_gHq7r-3" value="booking name" style="rounded=1;whiteSpace=wrap;html=1;" vertex="1" parent="1">
          <mxGeometry x="40" y="1820" width="240" height="40" as="geometry" />
        </mxCell>
        <mxCell id="q0-gRQDSt2aBvQ_gHq7r-4" value="booking €" style="rounded=1;whiteSpace=wrap;html=1;" vertex="1" parent="1">
          <mxGeometry x="280" y="1820" width="120" height="40" as="geometry" />
        </mxCell>
        <mxCell id="q0-gRQDSt2aBvQ_gHq7r-5" value="booking id&lt;br&gt;&lt;br&gt;&amp;nbsp;&lt;br&gt;&amp;nbsp;" style="rounded=1;whiteSpace=wrap;html=1;fontSize=12;" vertex="1" parent="1">
          <mxGeometry x="40" y="1860" width="360" height="60" as="geometry" />
        </mxCell>
        <mxCell id="q0-gRQDSt2aBvQ_gHq7r-6" value="booking name" style="rounded=1;whiteSpace=wrap;html=1;" vertex="1" parent="1">
          <mxGeometry x="40" y="1880" width="240" height="40" as="geometry" />
        </mxCell>
        <mxCell id="q0-gRQDSt2aBvQ_gHq7r-7" value="booking €" style="rounded=1;whiteSpace=wrap;html=1;" vertex="1" parent="1">
          <mxGeometry x="280" y="1880" width="120" height="40" as="geometry" />
        </mxCell>
        <mxCell id="q0-gRQDSt2aBvQ_gHq7r-8" value="booking id&lt;br&gt;&lt;br&gt;&amp;nbsp;&lt;br&gt;&amp;nbsp;" style="rounded=1;whiteSpace=wrap;html=1;fontSize=12;glass=0;" vertex="1" parent="1">
          <mxGeometry x="40" y="330" width="360" height="60" as="geometry" />
        </mxCell>
        <mxCell id="q0-gRQDSt2aBvQ_gHq7r-9" value="booking name" style="rounded=1;whiteSpace=wrap;html=1;" vertex="1" parent="1">
          <mxGeometry x="40" y="350" width="240" height="40" as="geometry" />
        </mxCell>
        <mxCell id="q0-gRQDSt2aBvQ_gHq7r-10" value="booking €" style="rounded=1;whiteSpace=wrap;html=1;" vertex="1" parent="1">
          <mxGeometry x="280" y="350" width="120" height="40" as="geometry" />
        </mxCell>
        <mxCell id="q0-gRQDSt2aBvQ_gHq7r-11" value="booking id&lt;br&gt;&lt;br&gt;&amp;nbsp;&lt;br&gt;&amp;nbsp;" style="rounded=1;whiteSpace=wrap;html=1;fontSize=12;perimeterSpacing=10;" vertex="1" parent="1">
          <mxGeometry x="40" y="390" width="360" height="60" as="geometry" />
        </mxCell>
        <mxCell id="q0-gRQDSt2aBvQ_gHq7r-12" value="booking name" style="rounded=1;whiteSpace=wrap;html=1;arcSize=15;" vertex="1" parent="1">
          <mxGeometry x="40" y="410" width="240" height="40" as="geometry" />
        </mxCell>
        <mxCell id="q0-gRQDSt2aBvQ_gHq7r-13" value="booking €" style="rounded=1;whiteSpace=wrap;html=1;" vertex="1" parent="1">
          <mxGeometry x="280" y="410" width="120" height="40" as="geometry" />
        </mxCell>
        <mxCell id="q0-gRQDSt2aBvQ_gHq7r-17" value="milestone id" style="rounded=1;whiteSpace=wrap;html=1;" vertex="1" parent="1">
          <mxGeometry x="40" y="1020" width="180" height="40" as="geometry" />
        </mxCell>
        <mxCell id="q0-gRQDSt2aBvQ_gHq7r-18" value="Milestone €" style="rounded=1;whiteSpace=wrap;html=1;" vertex="1" parent="1">
          <mxGeometry x="220" y="1020" width="180" height="40" as="geometry" />
        </mxCell>
        <mxCell id="q0-gRQDSt2aBvQ_gHq7r-19" value="milestone id" style="rounded=1;whiteSpace=wrap;html=1;" vertex="1" parent="1">
          <mxGeometry x="40" y="1080" width="180" height="40" as="geometry" />
        </mxCell>
        <mxCell id="q0-gRQDSt2aBvQ_gHq7r-20" value="Milestone €" style="rounded=1;whiteSpace=wrap;html=1;" vertex="1" parent="1">
          <mxGeometry x="220" y="1080" width="180" height="40" as="geometry" />
        </mxCell>
        <mxCell id="q0-gRQDSt2aBvQ_gHq7r-21" value="€" style="rounded=0;whiteSpace=wrap;html=1;fontSize=12;" vertex="1" parent="1">
          <mxGeometry x="480" y="1000" width="360" height="60" as="geometry" />
        </mxCell>
        <mxCell id="q0-gRQDSt2aBvQ_gHq7r-22" value="Date" style="rounded=0;whiteSpace=wrap;html=1;fontSize=12;" vertex="1" parent="1">
          <mxGeometry x="480" y="1060" width="360" height="60" as="geometry" />
        </mxCell>
        <mxCell id="q0-gRQDSt2aBvQ_gHq7r-23" value="Single Complete: Yes/No&lt;br&gt;Complete: Yes/no" style="rounded=0;whiteSpace=wrap;html=1;fontSize=12;" vertex="1" parent="1">
          <mxGeometry x="480" y="1120" width="360" height="60" as="geometry" />
        </mxCell>
        <mxCell id="q0-gRQDSt2aBvQ_gHq7r-24" value="€" style="rounded=0;whiteSpace=wrap;html=1;fontSize=12;" vertex="1" parent="1">
          <mxGeometry x="480" y="1000" width="360" height="60" as="geometry" />
        </mxCell>
        <mxCell id="q0-gRQDSt2aBvQ_gHq7r-25" value="Date" style="rounded=0;whiteSpace=wrap;html=1;fontSize=12;" vertex="1" parent="1">
          <mxGeometry x="480" y="1060" width="360" height="60" as="geometry" />
        </mxCell>
        <mxCell id="q0-gRQDSt2aBvQ_gHq7r-26" value="Single Complete: Yes/No&lt;br&gt;Complete: Yes/no" style="rounded=0;whiteSpace=wrap;html=1;fontSize=12;" vertex="1" parent="1">
          <mxGeometry x="480" y="1120" width="360" height="60" as="geometry" />
        </mxCell>
        <mxCell id="q0-gRQDSt2aBvQ_gHq7r-27" value="Date" style="rounded=0;whiteSpace=wrap;html=1;fontSize=12;" vertex="1" parent="1">
          <mxGeometry x="920" y="1120" width="360" height="60" as="geometry" />
        </mxCell>
        <mxCell id="q0-gRQDSt2aBvQ_gHq7r-28" value="€" style="rounded=0;whiteSpace=wrap;html=1;fontSize=12;" vertex="1" parent="1">
          <mxGeometry x="920" y="1060" width="360" height="60" as="geometry" />
        </mxCell>
        <mxCell id="q0-gRQDSt2aBvQ_gHq7r-29" value="id" style="rounded=0;whiteSpace=wrap;html=1;fontSize=12;" vertex="1" parent="1">
          <mxGeometry x="920" y="1000" width="360" height="60" as="geometry" />
        </mxCell>
        <mxCell id="q0-gRQDSt2aBvQ_gHq7r-30" value="€" style="rounded=0;whiteSpace=wrap;html=1;fontSize=12;" vertex="1" parent="1">
          <mxGeometry x="480" y="1000" width="360" height="60" as="geometry" />
        </mxCell>
        <mxCell id="q0-gRQDSt2aBvQ_gHq7r-31" value="Date" style="rounded=0;whiteSpace=wrap;html=1;fontSize=12;" vertex="1" parent="1">
          <mxGeometry x="480" y="1060" width="360" height="60" as="geometry" />
        </mxCell>
        <mxCell id="q0-gRQDSt2aBvQ_gHq7r-32" value="Single Complete: Yes/No&lt;br&gt;Complete: Yes/no" style="rounded=0;whiteSpace=wrap;html=1;fontSize=12;" vertex="1" parent="1">
          <mxGeometry x="480" y="1120" width="360" height="60" as="geometry" />
        </mxCell>
        <mxCell id="q0-gRQDSt2aBvQ_gHq7r-33" value="Date" style="rounded=0;whiteSpace=wrap;html=1;fontSize=12;" vertex="1" parent="1">
          <mxGeometry x="920" y="1120" width="360" height="60" as="geometry" />
        </mxCell>
        <mxCell id="q0-gRQDSt2aBvQ_gHq7r-34" value="€" style="rounded=0;whiteSpace=wrap;html=1;fontSize=12;" vertex="1" parent="1">
          <mxGeometry x="920" y="1060" width="360" height="60" as="geometry" />
        </mxCell>
        <mxCell id="q0-gRQDSt2aBvQ_gHq7r-35" value="id" style="rounded=0;whiteSpace=wrap;html=1;fontSize=12;" vertex="1" parent="1">
          <mxGeometry x="920" y="1000" width="360" height="60" as="geometry" />
        </mxCell>
        <mxCell id="q0-gRQDSt2aBvQ_gHq7r-36" value="Date" style="rounded=0;whiteSpace=wrap;html=1;fontSize=12;" vertex="1" parent="1">
          <mxGeometry x="480" y="1860" width="360" height="60" as="geometry" />
        </mxCell>
        <mxCell id="q0-gRQDSt2aBvQ_gHq7r-37" value="Single bill or repeditive bill" style="rounded=0;whiteSpace=wrap;html=1;fontSize=12;" vertex="1" parent="1">
          <mxGeometry x="480" y="1920" width="360" height="60" as="geometry" />
        </mxCell>
        <mxCell id="q0-gRQDSt2aBvQ_gHq7r-38" value="Checkbox repeditive Bill&lt;br&gt;Checkboxes: yearly - halfyearly - quartal - monthly" style="rounded=0;whiteSpace=wrap;html=1;fontSize=12;" vertex="1" parent="1">
          <mxGeometry x="920" y="2040" width="360" height="60" as="geometry" />
        </mxCell>
        <mxCell id="q0-gRQDSt2aBvQ_gHq7r-39" value="€" style="rounded=0;whiteSpace=wrap;html=1;fontSize=12;" vertex="1" parent="1">
          <mxGeometry x="480" y="1000" width="360" height="60" as="geometry" />
        </mxCell>
        <mxCell id="q0-gRQDSt2aBvQ_gHq7r-40" value="Date" style="rounded=0;whiteSpace=wrap;html=1;fontSize=12;" vertex="1" parent="1">
          <mxGeometry x="480" y="1060" width="360" height="60" as="geometry" />
        </mxCell>
        <mxCell id="q0-gRQDSt2aBvQ_gHq7r-41" value="Single Complete: Yes/No&lt;br&gt;Complete: Yes/no" style="rounded=0;whiteSpace=wrap;html=1;fontSize=12;" vertex="1" parent="1">
          <mxGeometry x="480" y="1120" width="360" height="60" as="geometry" />
        </mxCell>
        <mxCell id="q0-gRQDSt2aBvQ_gHq7r-42" value="Date" style="rounded=0;whiteSpace=wrap;html=1;fontSize=12;" vertex="1" parent="1">
          <mxGeometry x="920" y="1120" width="360" height="60" as="geometry" />
        </mxCell>
        <mxCell id="q0-gRQDSt2aBvQ_gHq7r-43" value="€" style="rounded=0;whiteSpace=wrap;html=1;fontSize=12;" vertex="1" parent="1">
          <mxGeometry x="920" y="1060" width="360" height="60" as="geometry" />
        </mxCell>
        <mxCell id="q0-gRQDSt2aBvQ_gHq7r-44" value="id" style="rounded=0;whiteSpace=wrap;html=1;fontSize=12;" vertex="1" parent="1">
          <mxGeometry x="920" y="1000" width="360" height="60" as="geometry" />
        </mxCell>
        <mxCell id="q0-gRQDSt2aBvQ_gHq7r-45" value="Date" style="rounded=0;whiteSpace=wrap;html=1;fontSize=12;" vertex="1" parent="1">
          <mxGeometry x="480" y="1860" width="360" height="60" as="geometry" />
        </mxCell>
        <mxCell id="q0-gRQDSt2aBvQ_gHq7r-46" value="Single bill or repeditive bill" style="rounded=0;whiteSpace=wrap;html=1;fontSize=12;" vertex="1" parent="1">
          <mxGeometry x="480" y="1920" width="360" height="60" as="geometry" />
        </mxCell>
        <mxCell id="q0-gRQDSt2aBvQ_gHq7r-47" value="Checkbox repeditive Bill&lt;br&gt;Checkboxes: yearly - halfyearly - quartal - monthly" style="rounded=0;whiteSpace=wrap;html=1;fontSize=12;" vertex="1" parent="1">
          <mxGeometry x="920" y="2040" width="360" height="60" as="geometry" />
        </mxCell>
        <mxCell id="q0-gRQDSt2aBvQ_gHq7r-48" value="€" style="rounded=0;whiteSpace=wrap;html=1;fontSize=12;" vertex="1" parent="1">
          <mxGeometry x="480" y="1000" width="360" height="60" as="geometry" />
        </mxCell>
        <mxCell id="q0-gRQDSt2aBvQ_gHq7r-49" value="Date" style="rounded=0;whiteSpace=wrap;html=1;fontSize=12;" vertex="1" parent="1">
          <mxGeometry x="480" y="1060" width="360" height="60" as="geometry" />
        </mxCell>
        <mxCell id="q0-gRQDSt2aBvQ_gHq7r-50" value="Single Complete: Yes/No&lt;br&gt;Complete: Yes/no" style="rounded=0;whiteSpace=wrap;html=1;fontSize=12;" vertex="1" parent="1">
          <mxGeometry x="480" y="1120" width="360" height="60" as="geometry" />
        </mxCell>
        <mxCell id="q0-gRQDSt2aBvQ_gHq7r-51" value="Date" style="rounded=0;whiteSpace=wrap;html=1;fontSize=12;" vertex="1" parent="1">
          <mxGeometry x="920" y="1120" width="360" height="60" as="geometry" />
        </mxCell>
        <mxCell id="q0-gRQDSt2aBvQ_gHq7r-52" value="€" style="rounded=0;whiteSpace=wrap;html=1;fontSize=12;" vertex="1" parent="1">
          <mxGeometry x="920" y="1060" width="360" height="60" as="geometry" />
        </mxCell>
        <mxCell id="q0-gRQDSt2aBvQ_gHq7r-53" value="id" style="rounded=0;whiteSpace=wrap;html=1;fontSize=12;" vertex="1" parent="1">
          <mxGeometry x="920" y="1000" width="360" height="60" as="geometry" />
        </mxCell>
        <mxCell id="q0-gRQDSt2aBvQ_gHq7r-54" value="Date" style="rounded=0;whiteSpace=wrap;html=1;fontSize=12;" vertex="1" parent="1">
          <mxGeometry x="480" y="1860" width="360" height="60" as="geometry" />
        </mxCell>
        <mxCell id="q0-gRQDSt2aBvQ_gHq7r-55" value="Single bill or repeditive bill" style="rounded=0;whiteSpace=wrap;html=1;fontSize=12;" vertex="1" parent="1">
          <mxGeometry x="480" y="1920" width="360" height="60" as="geometry" />
        </mxCell>
        <mxCell id="q0-gRQDSt2aBvQ_gHq7r-56" value="Checkbox repeditive Bill&lt;br&gt;Checkboxes: yearly - halfyearly - quartal - monthly" style="rounded=0;whiteSpace=wrap;html=1;fontSize=12;" vertex="1" parent="1">
          <mxGeometry x="920" y="2040" width="360" height="60" as="geometry" />
        </mxCell>
        <mxCell id="q0-gRQDSt2aBvQ_gHq7r-57" value="€" style="rounded=0;whiteSpace=wrap;html=1;fontSize=12;" vertex="1" parent="1">
          <mxGeometry x="480" y="1000" width="360" height="60" as="geometry" />
        </mxCell>
        <mxCell id="q0-gRQDSt2aBvQ_gHq7r-58" value="Date" style="rounded=0;whiteSpace=wrap;html=1;fontSize=12;" vertex="1" parent="1">
          <mxGeometry x="480" y="1060" width="360" height="60" as="geometry" />
        </mxCell>
        <mxCell id="q0-gRQDSt2aBvQ_gHq7r-59" value="Single Complete: Yes/No&lt;br&gt;Complete: Yes/no" style="rounded=0;whiteSpace=wrap;html=1;fontSize=12;" vertex="1" parent="1">
          <mxGeometry x="480" y="1120" width="360" height="60" as="geometry" />
        </mxCell>
        <mxCell id="q0-gRQDSt2aBvQ_gHq7r-60" value="Date" style="rounded=0;whiteSpace=wrap;html=1;fontSize=12;" vertex="1" parent="1">
          <mxGeometry x="920" y="1120" width="360" height="60" as="geometry" />
        </mxCell>
        <mxCell id="q0-gRQDSt2aBvQ_gHq7r-61" value="€" style="rounded=0;whiteSpace=wrap;html=1;fontSize=12;" vertex="1" parent="1">
          <mxGeometry x="920" y="1060" width="360" height="60" as="geometry" />
        </mxCell>
        <mxCell id="q0-gRQDSt2aBvQ_gHq7r-62" value="id" style="rounded=0;whiteSpace=wrap;html=1;fontSize=12;" vertex="1" parent="1">
          <mxGeometry x="920" y="1000" width="360" height="60" as="geometry" />
        </mxCell>
        <mxCell id="q0-gRQDSt2aBvQ_gHq7r-63" value="Date" style="rounded=0;whiteSpace=wrap;html=1;fontSize=12;" vertex="1" parent="1">
          <mxGeometry x="480" y="1860" width="360" height="60" as="geometry" />
        </mxCell>
        <mxCell id="q0-gRQDSt2aBvQ_gHq7r-64" value="Single bill or repeditive bill" style="rounded=0;whiteSpace=wrap;html=1;fontSize=12;" vertex="1" parent="1">
          <mxGeometry x="480" y="1920" width="360" height="60" as="geometry" />
        </mxCell>
        <mxCell id="q0-gRQDSt2aBvQ_gHq7r-65" value="Checkbox repeditive Bill&lt;br&gt;Checkboxes: yearly - halfyearly - quartal - monthly" style="rounded=0;whiteSpace=wrap;html=1;fontSize=12;" vertex="1" parent="1">
          <mxGeometry x="920" y="2040" width="360" height="60" as="geometry" />
        </mxCell>
        <mxCell id="q0-gRQDSt2aBvQ_gHq7r-66" value="€" style="rounded=0;whiteSpace=wrap;html=1;fontSize=12;" vertex="1" parent="1">
          <mxGeometry x="480" y="1000" width="360" height="60" as="geometry" />
        </mxCell>
        <mxCell id="q0-gRQDSt2aBvQ_gHq7r-67" value="Date" style="rounded=0;whiteSpace=wrap;html=1;fontSize=12;" vertex="1" parent="1">
          <mxGeometry x="480" y="1060" width="360" height="60" as="geometry" />
        </mxCell>
        <mxCell id="q0-gRQDSt2aBvQ_gHq7r-68" value="Single Complete: Yes/No&lt;br&gt;Complete: Yes/no" style="rounded=0;whiteSpace=wrap;html=1;fontSize=12;" vertex="1" parent="1">
          <mxGeometry x="480" y="1120" width="360" height="60" as="geometry" />
        </mxCell>
        <mxCell id="q0-gRQDSt2aBvQ_gHq7r-69" value="Date" style="rounded=0;whiteSpace=wrap;html=1;fontSize=12;" vertex="1" parent="1">
          <mxGeometry x="920" y="1120" width="360" height="60" as="geometry" />
        </mxCell>
        <mxCell id="q0-gRQDSt2aBvQ_gHq7r-70" value="€" style="rounded=0;whiteSpace=wrap;html=1;fontSize=12;" vertex="1" parent="1">
          <mxGeometry x="920" y="1060" width="360" height="60" as="geometry" />
        </mxCell>
        <mxCell id="q0-gRQDSt2aBvQ_gHq7r-71" value="id" style="rounded=0;whiteSpace=wrap;html=1;fontSize=12;" vertex="1" parent="1">
          <mxGeometry x="920" y="1000" width="360" height="60" as="geometry" />
        </mxCell>
        <mxCell id="q0-gRQDSt2aBvQ_gHq7r-72" value="Date" style="rounded=0;whiteSpace=wrap;html=1;fontSize=12;" vertex="1" parent="1">
          <mxGeometry x="480" y="1860" width="360" height="60" as="geometry" />
        </mxCell>
        <mxCell id="q0-gRQDSt2aBvQ_gHq7r-73" value="Single bill or repeditive bill" style="rounded=0;whiteSpace=wrap;html=1;fontSize=12;" vertex="1" parent="1">
          <mxGeometry x="480" y="1920" width="360" height="60" as="geometry" />
        </mxCell>
        <mxCell id="q0-gRQDSt2aBvQ_gHq7r-74" value="Checkbox repeditive Bill&lt;br&gt;Checkboxes: yearly - halfyearly - quartal - monthly" style="rounded=0;whiteSpace=wrap;html=1;fontSize=12;" vertex="1" parent="1">
          <mxGeometry x="920" y="2040" width="360" height="60" as="geometry" />
        </mxCell>
        <mxCell id="q0-gRQDSt2aBvQ_gHq7r-75" value="€" style="rounded=1;whiteSpace=wrap;html=1;fontSize=12;" vertex="1" parent="1">
          <mxGeometry x="480" y="1000" width="360" height="60" as="geometry" />
        </mxCell>
        <mxCell id="q0-gRQDSt2aBvQ_gHq7r-76" value="Date" style="rounded=1;whiteSpace=wrap;html=1;fontSize=12;" vertex="1" parent="1">
          <mxGeometry x="480" y="1060" width="360" height="60" as="geometry" />
        </mxCell>
        <mxCell id="q0-gRQDSt2aBvQ_gHq7r-77" value="Single Complete: Yes/No&lt;br&gt;Complete: Yes/no" style="rounded=1;whiteSpace=wrap;html=1;fontSize=12;" vertex="1" parent="1">
          <mxGeometry x="480" y="1120" width="360" height="60" as="geometry" />
        </mxCell>
        <mxCell id="q0-gRQDSt2aBvQ_gHq7r-78" value="Date" style="rounded=1;whiteSpace=wrap;html=1;fontSize=12;" vertex="1" parent="1">
          <mxGeometry x="920" y="1120" width="360" height="60" as="geometry" />
        </mxCell>
        <mxCell id="q0-gRQDSt2aBvQ_gHq7r-79" value="€" style="rounded=1;whiteSpace=wrap;html=1;fontSize=12;" vertex="1" parent="1">
          <mxGeometry x="920" y="1060" width="360" height="60" as="geometry" />
        </mxCell>
        <mxCell id="q0-gRQDSt2aBvQ_gHq7r-80" value="id" style="rounded=1;whiteSpace=wrap;html=1;fontSize=12;" vertex="1" parent="1">
          <mxGeometry x="920" y="1000" width="360" height="60" as="geometry" />
        </mxCell>
        <mxCell id="q0-gRQDSt2aBvQ_gHq7r-81" value="Date" style="rounded=1;whiteSpace=wrap;html=1;fontSize=12;" vertex="1" parent="1">
          <mxGeometry x="480" y="1860" width="360" height="60" as="geometry" />
        </mxCell>
        <mxCell id="q0-gRQDSt2aBvQ_gHq7r-82" value="Single bill or repeditive bill" style="rounded=1;whiteSpace=wrap;html=1;fontSize=12;" vertex="1" parent="1">
          <mxGeometry x="480" y="1920" width="360" height="60" as="geometry" />
        </mxCell>
        <mxCell id="q0-gRQDSt2aBvQ_gHq7r-83" value="Checkbox repeditive Bill&lt;br&gt;Checkboxes: yearly - halfyearly - quartal - monthly" style="rounded=1;whiteSpace=wrap;html=1;fontSize=12;" vertex="1" parent="1">
          <mxGeometry x="920" y="2040" width="360" height="60" as="geometry" />
        </mxCell>
        <mxCell id="q0-gRQDSt2aBvQ_gHq7r-84" value="booking date" style="rounded=1;whiteSpace=wrap;html=1;glass=0;strokeColor=default;" vertex="1" parent="1">
          <mxGeometry x="280" y="1800" width="120" height="20" as="geometry" />
        </mxCell>
        <mxCell id="q0-gRQDSt2aBvQ_gHq7r-85" value="booking date" style="rounded=1;whiteSpace=wrap;html=1;glass=0;strokeColor=default;" vertex="1" parent="1">
          <mxGeometry x="280" y="1860" width="120" height="20" as="geometry" />
        </mxCell>
        <mxCell id="q0-gRQDSt2aBvQ_gHq7r-86" value="booking date" style="rounded=1;whiteSpace=wrap;html=1;glass=0;strokeColor=default;" vertex="1" parent="1">
          <mxGeometry x="280" y="330" width="120" height="20" as="geometry" />
        </mxCell>
        <mxCell id="q0-gRQDSt2aBvQ_gHq7r-87" value="booking date" style="rounded=1;whiteSpace=wrap;html=1;glass=0;strokeColor=default;" vertex="1" parent="1">
          <mxGeometry x="280" y="390" width="120" height="20" as="geometry" />
        </mxCell>
        <mxCell id="q0-gRQDSt2aBvQ_gHq7r-88" value="milestone date" style="rounded=1;whiteSpace=wrap;html=1;glass=0;strokeColor=default;" vertex="1" parent="1">
          <mxGeometry x="280" y="1000" width="120" height="20" as="geometry" />
        </mxCell>
        <mxCell id="q0-gRQDSt2aBvQ_gHq7r-89" value="milestone date" style="rounded=1;whiteSpace=wrap;html=1;glass=0;strokeColor=default;" vertex="1" parent="1">
          <mxGeometry x="280" y="1060" width="120" height="20" as="geometry" />
        </mxCell>
      </root>
    </mxGraphModel>
  </diagram>
</mxfile>
